<svg id="Capa_1" enable-background="new 0 0 512 512" height="512" viewBox="0 0 512 512" width="512" xmlns="http://www.w3.org/2000/svg"><path d="m497 451h-436v-436c0-8.291-6.709-15-15-15s-15 6.709-15 15v76h-16c-8.291 0-15 6.709-15 15s6.709 15 15 15h16v60h-16c-8.291 0-15 6.709-15 15s6.709 15 15 15h16v60h-16c-8.291 0-15 6.709-15 15s6.709 15 15 15h16v60h-16c-8.291 0-15 6.709-15 15s6.709 15 15 15h16v60h-16c-8.291 0-15 6.709-15 15s6.709 15 15 15h16v16c0 8.291 6.709 15 15 15s15-6.709 15-15v-16h60v16c0 8.291 6.709 15 15 15s15-6.709 15-15v-16h60v16c0 8.291 6.709 15 15 15s15-6.709 15-15v-16h60v16c0 8.291 6.709 15 15 15s15-6.709 15-15v-16h60v16c0 8.291 6.709 15 15 15s15-6.709 15-15v-16h76c8.291 0 15-6.709 15-15s-6.709-15-15-15z"/><path d="m481 165c0-8.291-6.709-15-15-15-30.22 0-53.262-33.296-77.666-68.54-27.73-40.049-56.396-81.46-102.334-81.46s-74.604 41.411-102.334 81.46c-24.404 35.244-47.446 68.54-77.666 68.54-8.291 0-15 6.709-15 15s6.709 15 15 15c45.938 0 74.604-41.411 102.334-81.46 24.404-35.244 47.446-68.54 77.666-68.54s53.262 33.296 77.666 68.54c27.73 40.049 56.396 81.46 102.334 81.46 8.291 0 15-6.709 15-15z"/><path d="m196 210h-60c-8.291 0-15 6.709-15 15v181c0 8.291 6.709 15 15 15h60c8.291 0 15-6.709 15-15v-181c0-8.291-6.709-15-15-15z"/><path d="m316 120h-60c-8.291 0-15 6.709-15 15v271c0 8.291 6.709 15 15 15h60c8.291 0 15-6.709 15-15v-271c0-8.291-6.709-15-15-15z"/><path d="m376 210c-8.291 0-15 6.709-15 15v181c0 8.291 6.709 15 15 15h60c8.291 0 15-6.709 15-15v-181c0-8.291-6.709-15-15-15z"/></svg>