<?xml version="1.0"?>
<svg xmlns="http://www.w3.org/2000/svg" xmlns:xlink="http://www.w3.org/1999/xlink" version="1.1" id="Layer_1" x="0px" y="0px" viewBox="0 0 24 24" style="enable-background:new 0 0 24 24;" xml:space="preserve">
<path id="_x31_" d="M16,11c0.6,0,1-0.4,1-1V8c0-0.6-0.4-1-1-1s-1,0.4-1,1v2C15,10.6,15.4,11,16,11z M20.9,23.2l-2.2-5.9  c-0.1-0.1-0.2-0.3-0.3-0.3c-0.1,0-0.3,0-0.4,0.1c-1.7,1.2-3.7,1.9-5.8,2c0,0-0.1,0-0.1,0c0,0,0,0-0.1,0c-2.1,0-4.2-0.7-5.9-2  c-0.1-0.1-0.3-0.1-0.4-0.1c-0.2,0-0.3,0.2-0.3,0.3L3,23.3c-0.1,0.2,0,0.4,0.1,0.5C3.2,24,3.4,24,3.5,24c0.1,0,0.2,0,0.2-0.1l3.7-1.9  l2.8,1.8c0.1,0.1,0.3,0.1,0.4,0.1c0.1,0,0.3-0.2,0.3-0.3l1.1-2.9l1,2.9c0.1,0.1,0.2,0.3,0.3,0.3c0.1,0,0.3,0,0.4-0.1l2.8-1.8  l3.7,1.9c0.1,0,0.1,0.1,0.2,0.1c0,0,0,0,0,0c0.3,0,0.5-0.2,0.5-0.5C21,23.4,21,23.3,20.9,23.2z M11,11c0.6,0,1-0.4,1-1V8  c0-0.6-0.4-1-1-1s-1,0.4-1,1v2C10,10.6,10.4,11,11,11z M12,18c5,0,9-4,9-9s-4-9-9-9C7,0,3,4,3,9S7,18,12,18z M14,8c0-1.1,0.9-2,2-2  c1.1,0,2,0.9,2,2v2c0,1.1-0.9,2-2,2c-1.1,0-2-0.9-2-2V8z M9,8c0-1.1,0.9-2,2-2c1.1,0,2,0.9,2,2v2c0,1.1-0.9,2-2,2c-1.1,0-2-0.9-2-2  V8z M6.1,7.1l1-1C7.3,6,7.5,6,7.7,6C7.9,6.1,8,6.3,8,6.5v5C8,11.8,7.8,12,7.5,12S7,11.8,7,11.5V7.7L6.8,7.9C6.6,8,6.3,8,6.1,7.9  C5.9,7.7,5.9,7.3,6.1,7.1z"/>
</svg>
