<?xml version="1.0"?>
<svg xmlns="http://www.w3.org/2000/svg" xmlns:xlink="http://www.w3.org/1999/xlink" version="1.1" id="Layer_1" x="0px" y="0px" viewBox="0 0 24 24" style="enable-background:new 0 0 24 24;" xml:space="preserve">
<path id="_x31_" d="M14.5,11c0.6,0,1-0.4,1-1V8c0-0.6-0.4-1-1-1c-0.6,0-1,0.4-1,1v2C13.5,10.6,13.9,11,14.5,11z M20.9,23.2l-2.4-5.9  c-0.1-0.2-0.2-0.3-0.4-0.3c-0.2,0-0.4,0-0.5,0.2c-0.2,0.2-0.4,0.4-0.6,0.5c-0.7,0.4-1.6,0.3-2.4,0.1c-0.2,0-0.4,0-0.5,0.2  c-0.4,0.4-1.1,1-2,1c0,0-0.1,0-0.1,0c0,0,0,0-0.1,0c-1,0-1.7-0.6-2.1-1.1c-0.1-0.1-0.4-0.1-0.5-0.1C8.6,18,7.7,18.1,7,17.7  c-0.2-0.1-0.4-0.3-0.6-0.5c-0.1-0.1-0.3-0.2-0.5-0.2c-0.2,0-0.3,0.1-0.4,0.3L3,23.3c-0.1,0.2,0,0.4,0.1,0.6C3.2,24,3.4,24,3.5,24  c0.1,0,0.2,0,0.2-0.1l3.7-1.9l2.8,1.8c0.1,0.1,0.3,0.1,0.4,0.1c0.1,0,0.3-0.2,0.3-0.3l1.1-2.9l1,2.9c0,0.1,0.2,0.3,0.3,0.3  c0.1,0.1,0.3,0,0.4-0.1l2.8-1.8l3.7,1.9c0.1,0,0.1,0.1,0.2,0.1h0c0.2,0,0.5-0.2,0.5-0.5C21,23.4,21,23.3,20.9,23.2z M4.3,11.1  c0.1,0.2,0,0.5-0.1,0.8c-0.1,0.5-0.3,1.1,0,1.6c0.3,0.5,0.9,0.7,1.4,0.8c0.3,0.1,0.6,0.2,0.8,0.3c0.1,0.1,0.2,0.5,0.3,0.8  c0.2,0.5,0.3,1.1,0.8,1.4c0.4,0.2,1,0.2,1.6,0c0.3-0.1,0.7-0.1,0.8-0.1c0.2,0,0.4,0.3,0.6,0.5c0.4,0.4,0.8,0.8,1.4,0.8  c0.6,0,1-0.4,1.4-0.8c0.2-0.2,0.5-0.4,0.6-0.5c0.2,0,0.5,0,0.8,0.1c0.6,0.1,1.2,0.2,1.6,0c0.5-0.3,0.7-0.9,0.8-1.4  c0.1-0.3,0.2-0.6,0.3-0.8s0.5-0.2,0.8-0.3c0.5-0.2,1.1-0.3,1.4-0.8c0.3-0.5,0.2-1.1,0-1.6c-0.1-0.3-0.1-0.6-0.1-0.8  c0-0.2,0.3-0.4,0.5-0.6C20.6,10,21,9.6,21,9c0-0.6-0.4-1-0.8-1.4c-0.2-0.2-0.4-0.5-0.5-0.6c-0.1-0.2,0-0.5,0.1-0.8  c0.1-0.5,0.3-1.1,0-1.6c-0.3-0.5-0.9-0.7-1.4-0.8c-0.3-0.1-0.6-0.2-0.8-0.3c-0.1-0.1-0.2-0.5-0.3-0.8c-0.2-0.5-0.3-1.1-0.8-1.4  c-0.4-0.2-1-0.2-1.6,0c-0.3,0.1-0.7,0.1-0.8,0.1c-0.2,0-0.4-0.3-0.6-0.5C13,0.4,12.6,0,12,0c-0.6,0-1,0.4-1.4,0.8  C10.3,1,10.1,1.2,9.9,1.3c-0.2,0-0.5,0-0.8-0.1C8.5,1,7.9,1,7.5,1.2C7,1.5,6.8,2.1,6.7,2.6C6.6,2.9,6.5,3.2,6.3,3.3  C6.2,3.5,5.9,3.6,5.6,3.7C5.1,3.8,4.5,4,4.2,4.5C3.9,5,4,5.6,4.2,6.1c0.1,0.3,0.1,0.6,0.1,0.8c0,0.2-0.3,0.4-0.5,0.6  C3.4,8,3,8.4,3,9c0,0.6,0.4,1,0.8,1.4C4,10.6,4.2,10.9,4.3,11.1z M12.5,8c0-1.1,0.9-2,2-2s2,0.9,2,2v2c0,1.1-0.9,2-2,2s-2-0.9-2-2V8  z M10,9H8C7.7,9,7.5,8.8,7.5,8.5v-2C7.5,6.2,7.7,6,8,6h3c0.3,0,0.5,0.2,0.5,0.5S11.3,7,11,7H8.5v1H10c0.8,0,1.5,0.7,1.5,1.5v1  c0,0.8-0.7,1.5-1.5,1.5H9c-0.8,0-1.5-0.7-1.5-1.5C7.5,10.2,7.7,10,8,10c0.3,0,0.5,0.2,0.5,0.5C8.5,10.8,8.7,11,9,11h1  c0.3,0,0.5-0.2,0.5-0.5v-1C10.5,9.2,10.3,9,10,9z"/>
</svg>
