<svg id="Layer_1" enable-background="new 0 0 75 75" viewBox="0 0 75 75" xmlns="http://www.w3.org/2000/svg"><g id="Snooker_Game"><path d="m6.1919913 68.6350098c1.9481063 1.9481049 5.1096511 1.9158859 7.0175786-.0585938l9.6171875-9.9482422c.2841797-.2949219.2802734-.7626953-.0087891-1.0517578l-5.5673828-5.5664063c-.2890625-.2900391-.7568359-.2939453-1.0517578-.0087891l-9.9472656 9.6162109c-1.9684634 1.9021112-2.0166664 5.060486-.0595708 7.0175783z"/><path d="m62.9722633 7.9260254-32.4189434 30.2910156c-.3027344.2822266-.3193359.7568359-.0361328 1.0595703.2807846.301239.7564659.3208046 1.0595703.0361328l32.4189434-30.2910156c.3027382-.2822266.3193398-.7568359.0361366-1.0595703-.2822303-.3027344-.7578163-.3193359-1.0595741-.0361328z"/><path d="m66.8658218 10.795166c-.3017578-.2832031-.7773438-.2666016-1.0595703.0361328l-30.2910194 32.4199219c-.2832031.3027344-.2666016.7773438.0361328 1.0595703.3036461.2851791.7792091.2646561 1.0595703-.0361328l30.2910194-32.4199219c.2832032-.3027343.2666016-.7773437-.0361328-1.0595703z"/><path d="m24.1392574 55.8449707c.1445313.1357422.328125.2021484.5117188.2021484.2001953 0 .4003906-.0800781.5478516-.2382813l8.6757793-9.2880859c.285347-.3034286.2685814-.790844-.0517578-1.0742188l-5.0048809-4.4208984c-.2802734-.2470703-.7011719-.2509766-.9853516-.0058594l-9.2548828 7.9589844c-.3134766.2695313-.3496094.7431641-.0791016 1.0576172.2705078.3134766.7441406.3486328 1.0576172.0791016l8.7587891-7.5322266 3.9374981 3.4775391-8.1494122 8.7246094c-.2832031.3027344-.2666015.7773437.0361328 1.0595703z"/><path d="m65.149025 5.7375488c-.2929688.2929688-.2929688.7675781 0 1.0605469l2.8808594 2.8808594c.2930679.2930737.7675629.2929783 1.0605469 0 1.0859375-1.0859375 1.0859375-2.8535156 0-3.9414063-1.0898438-1.086914-2.857422-1.0849609-3.9414063 0z"/><path d="m68.4058609 61.6174316-9.948246-9.6162109c-.2949219-.2851563-.7626953-.28125-1.0517578.0087891l-5.5673828 5.5664063c-.2890625.2890625-.2929688.7568359-.0087891 1.0517578l9.6171875 9.9482422c1.9068604 1.973381 5.0683327 2.007843 7.0175819.0585938 1.9452897-1.9452974 1.9205628-5.1051332-.0585937-7.0175783z"/><path d="m10.6226559 7.9631348c-.28125.3037109-.2636719.7783203.0390625 1.0605469l23.0576153 21.4101563c.1445313.1337891.328125.2001953.5107422.2001953.6785774 0 1.0090485-.8352566.5107422-1.2998047l-23.0576154-21.4101563c-.3037109-.28125-.7783203-.2646485-1.0605468.0390625z"/><path d="m7.7925773 10.7932129c-.3027344.2822266-.3203125.7568359-.0390625 1.0605469l21.3857422 23.0332031c.2809372.3032646.7566147.3204041 1.0605469.0390625.3027344-.2822266.3203125-.7568359.0390625-1.0605469l-21.3857418-23.0332031c-.28125-.3037109-.7568359-.3203125-1.0605473-.0390625z"/><path d="m45.6607399 39.9611816c-.2949219-.2695313-.7470703-.2597656-1.03125.0205078l-4.8417969 4.7763672c-.2871094.2832031-.2988281.7412109-.0283203 1.0390625l9.1220703 10.0332031c.2780914.3057137.7532387.3290482 1.0595703.0498047.3056641-.2783203.3291016-.7529297.0498047-1.0595703l-8.6376953-9.5 3.8242188-3.7714844 9.5820313 8.7109375c.3076172.2792969.78125.2558594 1.0595703-.0498047.2792969-.3066406.2558594-.78125-.0498047-1.0595703z"/><path d="m5.5669913 5.7375488c-1.0905867 1.0905871-1.088079 2.8553457 0 3.9414063.2917852.2917852.766397.2941504 1.0605469 0l2.8808599-2.8808594c.2929869-.2929873.2927952-.7677512 0-1.0605469-1.0888672-1.086914-2.8564458-1.0849609-3.9414068 0z"/><path d="m37.3287086 7.0939941c-5.3798809 0-9.756834 4.3769531-9.756834 9.7568359s4.3769531 9.7568359 9.756834 9.7568359 9.7568359-4.3769531 9.7568359-9.7568359-4.376953-9.7568359-9.7568359-9.7568359zm0 18.0136719c-4.5527344 0-8.256834-3.7041016-8.256834-8.2568359s3.7040997-8.2568359 8.256834-8.2568359 8.2568359 3.7041016 8.2568359 8.2568359-3.7041015 8.2568359-8.2568359 8.2568359z"/><path d="m37.3287086 10.1330566c-3.7041016 0-6.7177715 3.0136719-6.7177715 6.7177734s3.01367 6.7177734 6.7177715 6.7177734 6.7177734-3.0136719 6.7177734-6.7177734-3.0136718-6.7177734-6.7177734-6.7177734zm0 11.9355469c-2.8769531 0-5.2177734-2.3408203-5.2177734-5.2177734s2.3408203-5.2177734 5.2177734-5.2177734 5.2177734 2.3408203 5.2177734 5.2177734-2.3408202 5.2177734-5.2177734 5.2177734z"/><path d="m37.2289772 18.5178223c.9372292-.9574089 1.9069824-1.6524258 1.9069824-2.8798828 0-.6556702-.2835426-1.1806955-.9023438-1.4482422-.6485405-.2793636-1.7782059-.2873354-2.6381836.1914063-.7136536.3662252-.2353325 1.3938522.4614258 1.0576172.2686577-.1335554.5695457-.2388916.8674316-.2388916.4468155 0 .7799072.1645641.7799072.612915 0 .4100666-.2925835.7472019-.5808105 1.0500488-1.438015 1.5279331-1.7425537 1.677639-1.7425537 2.1960449 0 .4594345.2277489.6450195.6605225.6450195h2.7681885c.4075356 0 .6052246-.2208252.6052246-.5964355 0-.1914063-.0505371-.3370361-.1516113-.4379883-.2445603-.2469463-.6007614-.1141567-2.0341797-.1516113z"/><path d="m24.608984 37.0021973c0-5.3798828-4.3769531-9.7568359-9.7568359-9.7568359s-9.7568359 4.3769531-9.7568359 9.7568359 4.3769536 9.7568359 9.7568359 9.7568359 9.7568359-4.3769531 9.7568359-9.7568359zm-9.7568359 8.2568359c-4.5527344 0-8.2568359-3.7041016-8.2568359-8.2568359s3.704102-8.2568359 8.2568359-8.2568359 8.2568359 3.7041016 8.2568359 8.2568359-3.7041016 8.2568359-8.2568359 8.2568359z"/><path d="m17.1427975 38.1676025v-4.5186768c0-.3618164-.090332-.6391602-.2712402-.8334961-.3705292-.3921051-1.0826349-.34655-1.4755859-.1101074-.5031929.2969246-.5232649.5804062-3.5632324 4.9438477-.2670336.3894615-.5184326.7792969-.5184326 1.2480469 0 .6929321.4564524.9992676 1.1605225.9992676h2.4825439c.0231514.263401-.1080952.8926353.2894287 1.2901611.3887243.3889694 1.2275734.3960495 1.6112061-.0059814.1899414-.1975098.28479-.4733887.28479-.8275146v-.456665h.2954102c.5820217 0 .9511719-.269619.9511719-.8515625 0-.2879639-.079834-.5065918-.2412109-.6542969-.3183024-.2944528-.8283179-.2072526-1.0053713-.2230226zm-3.8050537 0 1.6196289-2.3917236v2.3917236z"/><path d="m60.4937477 27.2453613c-5.3798828 0-9.7568359 4.3769531-9.7568359 9.7568359s4.3769531 9.7568359 9.7568359 9.7568359 9.7568398-4.3769531 9.7568398-9.7568359-4.3769532-9.7568359-9.7568398-9.7568359zm0 18.0136719c-4.5527344 0-8.2568359-3.7041016-8.2568359-8.2568359s3.7041016-8.2568359 8.2568359-8.2568359 8.2568398 3.7041016 8.2568398 8.2568359-3.7041016 8.2568359-8.2568398 8.2568359z"/><path d="m59.3669167 36.7772217c.0066147-.1012039-.0486107-.7363281.2023926-1.3778076.4734612-1.1908493 1.8792267-1.2173004 2.9289551-.7119141 1.2393456.4672928 1.6621284-1.2392464.7374268-1.645874-.6111832-.344883-1.3125076-.515625-2.0010986-.515625-2.6617508 0-3.9796143 1.8856964-3.9796143 4.5687256 0 2.5036011 1.0990944 4.3828125 3.5614014 4.3828125 1.7976799 0 2.9963379-1.3095245 2.9963379-3.0083008-.0000002-3.0868111-3.4780275-3.6706963-4.4458009-1.6920166zm1.8917236 2.8221435c-.3156624.1881256-.776413.204895-1.1107178 0-.3568764-.2199936-.4976807-.6239853-.4976807-1.0432129 0-1.430275 1.5639-1.5184174 1.9771729-.6325684.2201996.4779855.1819115 1.3424073-.3687744 1.6757813z"/></g></svg>