<svg clip-rule="evenodd" fill-rule="evenodd" stroke-linejoin="round" stroke-miterlimit="2" viewBox="0 0 510 510" xmlns="http://www.w3.org/2000/svg"><path d="m284.256 403.749c3.208 5.221 5.058 11.365 5.058 17.942 0 18.951-15.363 34.313-34.314 34.313s-34.314-15.362-34.314-34.313 15.363-34.314 34.314-34.314c6.577 0 12.722 1.851 17.942 5.059l51.146-51.146c3.122-3.122 8.191-3.122 11.313 0s3.122 8.192 0 11.314zm-163.464-50.306c-10.438 20.486-16.324 43.68-16.324 68.248h-89.468c0-40.866 10.214-79.347 28.229-113.029zm-69.551-58.63c19.418-31.117 45.765-57.464 76.882-76.881l44.781 77.564c-17.589 11.466-32.633 26.509-44.099 44.099zm90.731-84.894c31.475-16.835 67.141-26.857 105.028-28.098v89.547c-21.602 1.131-41.999 6.817-60.247 16.115zm121.028-28.098c37.887 1.241 73.553 11.263 105.029 28.098l-44.781 77.564c-18.249-9.298-38.645-14.984-60.248-16.115zm118.877 36.111c31.117 19.417 57.464 45.764 76.882 76.881l-77.564 44.782c-11.466-17.589-26.51-32.633-44.099-44.099zm84.894 90.73c18.015 33.682 28.229 72.163 28.229 113.029h-89.468c0-24.568-5.886-47.762-16.325-68.247zm-218.598-249.706c.961-2.958 3.717-4.96 6.827-4.96s5.866 2.002 6.827 4.96l6.484 19.954c.961 2.957 3.717 4.96 6.827 4.96h20.981c3.11 0 5.866 2.003 6.827 4.96.961 2.958-.092 6.198-2.608 8.026l-16.974 12.332c-2.516 1.828-3.569 5.068-2.608 8.026l6.484 19.954c.961 2.958-.092 6.198-2.608 8.026s-5.923 1.828-8.439 0l-16.974-12.332c-2.516-1.828-5.922-1.828-8.438 0l-16.974 12.332c-2.516 1.828-5.923 1.828-8.439 0s-3.569-5.068-2.608-8.026l6.484-19.954c.961-2.958-.092-6.198-2.608-8.026l-16.974-12.332c-2.516-1.828-3.569-5.068-2.608-8.026.961-2.957 3.717-4.96 6.827-4.96h20.981c3.11 0 5.866-2.003 6.827-4.96zm-180.453 52.011c-.647-3.042.739-6.154 3.432-7.709 2.694-1.555 6.082-1.199 8.393.882l15.592 14.039c2.311 2.081 5.699 2.437 8.392.882l18.17-10.491c2.694-1.555 6.082-1.199 8.393.882s3.019 5.414 1.754 8.255l-8.533 19.167c-1.265 2.841-.557 6.173 1.754 8.254l15.592 14.039c2.311 2.081 3.02 5.413 1.755 8.255-1.265 2.841-4.216 4.544-7.309 4.219l-20.865-2.193c-3.093-.325-6.044 1.378-7.309 4.219l-8.533 19.167c-1.265 2.841-4.216 4.545-7.309 4.22s-5.624-2.605-6.271-5.647l-4.362-20.522c-.647-3.042-3.179-5.322-6.271-5.647l-20.866-2.193c-3.093-.325-5.625-2.605-6.272-5.647-.646-3.042.74-6.154 3.433-7.709l18.17-10.491c2.693-1.555 4.079-4.667 3.432-7.709zm362.735-6.828c2.311-2.081 5.699-2.437 8.393-.882 2.693 1.555 4.079 4.668 3.432 7.71l-4.362 20.522c-.647 3.042.739 6.154 3.432 7.709l18.17 10.491c2.694 1.555 4.079 4.667 3.433 7.709-.647 3.042-3.179 5.321-6.272 5.647l-20.866 2.193c-3.092.325-5.624 2.604-6.271 5.646l-4.362 20.523c-.647 3.042-3.178 5.321-6.271 5.646s-6.044-1.378-7.309-4.219l-8.533-19.167c-1.265-2.841-4.216-4.545-7.308-4.219l-20.866 2.193c-3.093.325-6.044-1.379-7.309-4.22-1.264-2.841-.556-6.173 1.755-8.254l15.592-14.039c2.311-2.081 3.019-5.413 1.754-8.255l-8.533-19.166c-1.265-2.842-.557-6.174 1.754-8.255s5.699-2.437 8.393-.882l18.17 10.49c2.693 1.555 6.081 1.199 8.392-.882z"/></svg>